<?xml version="1.0" encoding="utf-8"?>
<!-- Generator: Adobe Illustrator 16.0.0, SVG Export Plug-In . SVG Version: 6.00 Build 0)  -->
<!DOCTYPE svg PUBLIC "-//W3C//DTD SVG 1.1//EN" "http://www.w3.org/Graphics/SVG/1.1/DTD/svg11.dtd">
<svg version="1.1" id="Layer_1" xmlns="http://www.w3.org/2000/svg" xmlns:xlink="http://www.w3.org/1999/xlink" x="0px" y="0px"
	 width="512px" height="512px" viewBox="0 0 512 512" enable-background="new 0 0 512 512" xml:space="preserve">
<g id="XMLID_1_">
	
		<image overflow="visible" opacity="0.3" width="514" height="514" xlink:href="23AEB473A5ADF7FD.png"  transform="matrix(1 0 0 1 -5.5 8.5)">
	</image>
	<g>
		<g>
			<g>
				<g>
					<g>
						
							<linearGradient id="SVGID_1_" gradientUnits="userSpaceOnUse" x1="269" y1="-101.2505" x2="752.5" y2="-101.2505" gradientTransform="matrix(1 0 0 -1 -266 157)">
							<stop  offset="0" style="stop-color:#FC00FF"/>
							<stop  offset="0.4957" style="stop-color:#862DFF"/>
							<stop  offset="1" style="stop-color:#35A4FF"/>
						</linearGradient>
						<path fill="url(#SVGID_1_)" d="M486.5,16.5v332.406c0,33.41-40.606,60.438-90.656,60.438s-90.656-27.027-90.656-60.438
							c0-33.411,40.606-60.438,90.656-60.438c23.315,0,44.384,6.024,60.438,15.667V85.172l-139.29,111.224L191.867,134.07
							l-7.555,305.494c0,33.409-40.606,60.438-90.656,60.438C43.606,500.001,3,472.973,3,439.562
							c0-33.411,40.606-60.438,90.656-60.438c23.315,0,44.384,6.024,60.438,15.667l2.361-328.714l156.76,66.104L486.5,16.5z"/>
					</g>
				</g>
			</g>
		</g>
	</g>
</g>
</svg>
