<?xml version="1.0" encoding="utf-8"?>
<!-- Generator: Adobe Illustrator 16.0.0, SVG Export Plug-In . SVG Version: 6.00 Build 0)  -->
<!DOCTYPE svg PUBLIC "-//W3C//DTD SVG 1.1//EN" "http://www.w3.org/Graphics/SVG/1.1/DTD/svg11.dtd">
<svg version="1.1" xmlns="http://www.w3.org/2000/svg" xmlns:xlink="http://www.w3.org/1999/xlink" x="0px" y="0px" width="300px"
	 height="250px" viewBox="0 0 300 250" enable-background="new 0 0 300 250" xml:space="preserve">
<g id="Layer_1">
	<linearGradient id="SVGID_1_" gradientUnits="userSpaceOnUse" x1="150.0005" y1="250" x2="150.0005" y2="4.882812e-04">
		<stop  offset="0" style="stop-color:#FFFFFF"/>
		<stop  offset="0.2365" style="stop-color:#FDFDFD;stop-opacity:0.8108"/>
		<stop  offset="0.3732" style="stop-color:#F4F4F4;stop-opacity:0.7015"/>
		<stop  offset="0.4845" style="stop-color:#E6E6E6;stop-opacity:0.6124"/>
		<stop  offset="0.5821" style="stop-color:#D2D2D2;stop-opacity:0.5343"/>
		<stop  offset="0.6708" style="stop-color:#B8B8B8;stop-opacity:0.4633"/>
		<stop  offset="0.753" style="stop-color:#999999;stop-opacity:0.3976"/>
		<stop  offset="0.8303" style="stop-color:#737373;stop-opacity:0.3358"/>
		<stop  offset="0.9037" style="stop-color:#474747;stop-opacity:0.2771"/>
		<stop  offset="0.9714" style="stop-color:#171717;stop-opacity:0.2229"/>
		<stop  offset="1" style="stop-color:#000000;stop-opacity:0.2"/>
	</linearGradient>
	<rect fill="url(#SVGID_1_)" width="300" height="250"/>
	<g id="XMLID_1_">
		
			<image overflow="visible" opacity="0.35" width="656" height="656" xlink:href="EB55D6C2011F03D1.png"  transform="matrix(0.24 0 0 0.24 71.6758 44.0381)">
		</image>
		<g>
			<g>
				<g>
					<g>
						<g>
							<g>
								<g>
									
										<linearGradient id="SVGID_2_" gradientUnits="userSpaceOnUse" x1="589.6758" y1="392.7158" x2="729.0293" y2="392.7158" gradientTransform="matrix(1 0 0 1 -512 -274)">
										<stop  offset="0" style="stop-color:#FC00FF"/>
										<stop  offset="0.4957" style="stop-color:#862DFF"/>
										<stop  offset="1" style="stop-color:#35A4FF"/>
									</linearGradient>
									<path fill="url(#SVGID_2_)" d="M217.029,49.038v95.805c0,9.632-11.701,17.421-26.126,17.421
										c-14.426,0-26.129-7.789-26.129-17.421c0-9.629,11.703-17.418,26.129-17.418c6.722,0,12.792,1.736,17.422,4.515V68.831
										l-40.148,32.056l-36.064-17.964l-2.178,88.052c0,9.63-11.704,17.419-26.129,17.419c-14.425,0-26.13-7.789-26.13-17.42
										c0-9.63,11.705-17.421,26.13-17.421c6.723,0,12.793,1.737,17.419,4.517l0.682-94.743l45.181,19.053L217.029,49.038z"/>
								</g>
							</g>
						</g>
					</g>
				</g>
			</g>
		</g>
	</g>
	<text transform="matrix(1 0 0 1 72.4888 223.5)" fill="#777777" font-family="'Lato-Light'" font-size="15">NO IMAGE AVAILABLE</text>
</g>
<g id="Layer_2">
</g>
</svg>
