<?xml version="1.0" encoding="utf-8"?>
<!-- Generator: Adobe Illustrator 16.0.0, SVG Export Plug-In . SVG Version: 6.00 Build 0)  -->
<!DOCTYPE svg PUBLIC "-//W3C//DTD SVG 1.1//EN" "http://www.w3.org/Graphics/SVG/1.1/DTD/svg11.dtd">
<svg version="1.1" xmlns="http://www.w3.org/2000/svg" xmlns:xlink="http://www.w3.org/1999/xlink" x="0px" y="0px" width="80px"
	 height="70px" viewBox="0 0 80 70" enable-background="new 0 0 80 70" xml:space="preserve">
<g id="Layer_1" display="none">
</g>
<g id="Layer_2">
	<g>
		
			<image overflow="visible" opacity="0.6" width="291" height="109" xlink:href="D6B507D5B8EE023C.png"  transform="matrix(0.24 0 0 0.24 -1 30.2266)">
		</image>
		<g>
			<g>
				<g>
					<g>
						<linearGradient id="SVGID_1_" gradientUnits="userSpaceOnUse" x1="47.4619" y1="42.7422" x2="66.6016" y2="42.7422">
							<stop  offset="0" style="stop-color:#35A4FF"/>
							<stop  offset="1" style="stop-color:#862DFF"/>
							<stop  offset="1" style="stop-color:#FC00FF"/>
						</linearGradient>
						<path fill="url(#SVGID_1_)" d="M62.123,35.99c-0.371-0.216-0.828-0.415-1.39-0.587c-0.552-0.172-1.251-0.268-2.097-0.268
							c-0.949,0-1.812,0.173-2.598,0.518c-0.785,0.336-1.467,0.836-2.027,1.484c-0.562,0.647-1.001,1.441-1.312,2.382
							c-0.311,0.94-0.466,2.011-0.466,3.219s0.164,2.287,0.501,3.236c0.336,0.949,0.803,1.743,1.39,2.398
							c0.578,0.656,1.268,1.148,2.045,1.484c0.785,0.337,1.622,0.501,2.511,0.501c0.526,0,1.01-0.026,1.433-0.069
							c0.432-0.061,0.828-0.146,1.199-0.268c0.371-0.129,0.717-0.285,1.045-0.483c0.318-0.198,0.655-0.448,0.983-0.742
							c0.112-0.095,0.232-0.172,0.354-0.232c0.13-0.069,0.259-0.095,0.406-0.095c0.259,0,0.475,0.095,0.655,0.275l1.847,1.977
							c-0.915,1.156-2.045,2.036-3.392,2.641c-1.354,0.596-2.96,0.897-4.823,0.897c-1.691,0-3.21-0.285-4.557-0.863
							c-1.346-0.569-2.485-1.372-3.426-2.398c-0.949-1.027-1.674-2.244-2.175-3.65c-0.509-1.407-0.768-2.942-0.768-4.608
							c0-1.122,0.12-2.184,0.371-3.192c0.241-1.01,0.595-1.942,1.062-2.788c0.466-0.854,1.026-1.622,1.683-2.304
							c0.655-0.682,1.397-1.26,2.234-1.743c0.829-0.483,1.727-0.854,2.71-1.104c0.976-0.25,2.02-0.38,3.124-0.38
							c0.828,0,1.613,0.069,2.355,0.216c0.742,0.147,1.433,0.345,2.071,0.604c0.647,0.259,1.234,0.578,1.777,0.941
							c0.544,0.371,1.036,0.768,1.476,1.208l-1.57,2.14c-0.095,0.139-0.216,0.251-0.362,0.354c-0.138,0.104-0.337,0.155-0.587,0.155
							s-0.5-0.087-0.751-0.259C62.796,36.404,62.485,36.215,62.123,35.99z"/>
						<polygon fill="#35A4FF" points="39.212,54.009 39.212,46.881 39.212,33.6 39.212,31.477 43.906,31.477 43.906,54.009 						
							"/>
						<path fill="#35A4FF" d="M36.243,44.481c0.302,0.656,0.449,1.458,0.449,2.399c0,1.026-0.181,1.984-0.543,2.882
							c-0.354,0.897-0.872,1.674-1.544,2.348c-0.673,0.664-1.502,1.19-2.485,1.579c-0.993,0.379-2.114,0.569-3.366,0.569
							c-0.716,0-1.432-0.069-2.14-0.216c-0.708-0.146-1.389-0.346-2.045-0.604c-0.665-0.259-1.277-0.569-1.855-0.932
							c-0.587-0.362-1.087-0.768-1.527-1.217l1.372-2.2c0.112-0.164,0.259-0.303,0.449-0.414c0.181-0.112,0.38-0.164,0.587-0.164
							c0.285,0,0.578,0.104,0.889,0.311s0.665,0.439,1.07,0.682c0.405,0.25,0.872,0.483,1.406,0.69
							c0.535,0.207,1.174,0.311,1.916,0.311c1.087,0,1.933-0.25,2.528-0.751c0.595-0.492,0.889-1.233,0.889-2.218
							c0-0.569-0.146-1.035-0.44-1.381c-0.293-0.354-0.682-0.646-1.156-0.889c-0.475-0.232-1.019-0.44-1.631-0.612
							c-0.613-0.173-1.243-0.362-1.881-0.569c-0.639-0.208-1.269-0.458-1.881-0.742c-0.613-0.294-1.156-0.674-1.631-1.148
							c-0.475-0.482-0.863-1.069-1.156-1.777c-0.293-0.699-0.44-1.579-0.44-2.623c0-0.837,0.164-1.648,0.492-2.434
							c0.336-0.794,0.82-1.493,1.467-2.097c0.639-0.613,1.424-1.104,2.365-1.476c0.94-0.38,2.01-0.561,3.227-0.561
							c1.355,0,2.606,0.207,3.763,0.63c1.156,0.415,2.131,1.001,2.925,1.743l-1.148,2.192c-0.146,0.242-0.293,0.415-0.44,0.518
							c-0.155,0.112-0.345,0.164-0.587,0.164c-0.224,0-0.475-0.078-0.733-0.242c-0.268-0.155-0.569-0.328-0.923-0.518
							s-0.759-0.362-1.217-0.518c-0.449-0.164-0.984-0.242-1.596-0.242c-1.079,0-1.881,0.242-2.425,0.725
							c-0.535,0.475-0.803,1.104-0.803,1.881c0,0.501,0.146,0.915,0.44,1.234c0.293,0.328,0.682,0.612,1.165,0.846
							c0.483,0.241,1.027,0.457,1.64,0.639c0.613,0.189,1.234,0.396,1.881,0.612c0.639,0.225,1.269,0.483,1.873,0.785
							c0.613,0.302,1.165,0.682,1.64,1.14C35.562,43.265,35.95,43.825,36.243,44.481z"/>
						<path fill="#35A4FF" d="M19.002,44.896c0,1.363-0.225,2.623-0.665,3.763c-0.44,1.147-1.07,2.132-1.89,2.96
							c-0.812,0.828-1.812,1.476-2.978,1.941c-1.173,0.466-2.494,0.699-3.961,0.699c-1.476,0-2.796-0.233-3.969-0.699
							c-1.174-0.466-2.175-1.113-2.995-1.941c-0.811-0.828-1.441-1.812-1.881-2.96C0.224,47.519,0,46.259,0,44.896V31.477h4.66
							v13.418c0,0.828,0.112,1.57,0.328,2.235c0.216,0.664,0.535,1.226,0.949,1.691C6.351,49.288,6.86,49.65,7.456,49.9
							c0.604,0.259,1.286,0.389,2.054,0.389c0.751,0,1.433-0.13,2.037-0.389c0.596-0.25,1.104-0.612,1.519-1.078
							c0.414-0.466,0.733-1.027,0.949-1.691c0.216-0.665,0.328-1.407,0.328-2.235V31.477h4.66V44.896z"/>
					</g>
				</g>
			</g>
		</g>
	</g>
	<g>
		
			<image overflow="visible" opacity="0.6" width="103" height="128" xlink:href="D6B507D5B8EE023D.png"  transform="matrix(0.24 0 0 0.24 -1 -1.0005)">
		</image>
		<g>
			<g>
				<g>
					<g>
						<linearGradient id="SVGID_2_" gradientUnits="userSpaceOnUse" x1="0" y1="13.8223" x2="21.6831" y2="13.8223">
							<stop  offset="0" style="stop-color:#35A4FF"/>
							<stop  offset="1" style="stop-color:#862DFF"/>
							<stop  offset="1" style="stop-color:#FC00FF"/>
						</linearGradient>
						<path fill="url(#SVGID_2_)" d="M8.385,19.21L0,0h4.904c0.445,0,0.791,0.099,1.028,0.297C6.18,0.504,6.358,0.741,6.466,1.008
							l3.965,9.996c0.148,0.385,0.287,0.781,0.396,1.186c0.119,0.396,0.228,0.791,0.336,1.187c0.247-0.801,0.524-1.602,0.831-2.393
							l3.688-9.976c0.109-0.297,0.307-0.534,0.593-0.732C16.551,0.089,16.868,0,17.204,0h4.479L10.412,26.507
							c-0.168,0.376-0.386,0.663-0.633,0.851c-0.257,0.188-0.653,0.287-1.187,0.287H4.439L8.385,19.21z"/>
					</g>
				</g>
			</g>
		</g>
	</g>
</g>
</svg>
